<svg width="352.901" height="72.801" viewBox="0 0 352.901 72.801" xmlns="http://www.w3.org/2000/svg"><g id="svgGroup" stroke-linecap="round" fill-rule="evenodd" font-size="9pt" stroke="#fff" stroke-width="0.25mm" fill="#fff" style="stroke:#fff;stroke-width:0.25mm;fill:#fff"><path d="M 51.001 2.9 L 51.001 63.3 Q 51.001 67.2 48.351 70 A 8.626 8.626 0 0 1 42.104 72.796 A 10.665 10.665 0 0 1 41.801 72.8 L 33.101 72.8 A 8.579 8.579 0 0 1 31.567 72.67 Q 30.454 72.468 29.601 71.95 A 8.538 8.538 0 0 1 28.217 70.915 A 6.965 6.965 0 0 1 27.351 69.95 Q 26.501 68.8 26.101 67.5 Q 25.701 66.2 25.501 65.3 Q 25.301 66.1 24.951 67.35 A 7.494 7.494 0 0 1 24.234 69.045 A 9.172 9.172 0 0 1 23.751 69.8 A 7.603 7.603 0 0 1 22.265 71.355 A 9.347 9.347 0 0 1 21.501 71.9 Q 20.276 72.688 18.439 72.786 A 10.05 10.05 0 0 1 17.901 72.8 L 9.201 72.8 A 8.909 8.909 0 0 1 5.209 71.914 A 8.983 8.983 0 0 1 2.651 70 Q 0.001 67.2 0.001 63.3 L 0.001 2.9 A 0.315 0.315 0 0 1 0.029 2.762 Q 0.094 2.629 0.304 2.605 A 0.875 0.875 0 0 1 0.401 2.6 L 10.401 2.6 Q 10.783 2.6 10.8 2.873 A 0.421 0.421 0 0 1 10.801 2.9 L 10.801 60.2 A 4.156 4.156 0 0 0 11.458 62.433 A 5.117 5.117 0 0 0 11.601 62.65 A 2.551 2.551 0 0 0 13.082 63.664 Q 13.583 63.8 14.201 63.8 L 16.201 63.8 A 7.372 7.372 0 0 0 18.001 63.588 A 6.095 6.095 0 0 0 19.401 63.05 Q 20.713 62.347 20.796 60.46 A 5.929 5.929 0 0 0 20.801 60.2 L 20.801 2.7 A 0.315 0.315 0 0 1 20.829 2.562 Q 20.894 2.429 21.104 2.405 A 0.875 0.875 0 0 1 21.201 2.4 L 29.801 2.4 Q 30.183 2.4 30.2 2.673 A 0.421 0.421 0 0 1 30.201 2.7 L 30.201 60.2 A 4.893 4.893 0 0 0 30.3 61.22 Q 30.431 61.835 30.737 62.281 A 2.406 2.406 0 0 0 31.601 63.05 A 6.33 6.33 0 0 0 33.873 63.747 A 7.941 7.941 0 0 0 34.801 63.8 L 36.801 63.8 Q 38.102 63.8 38.88 63.2 A 2.47 2.47 0 0 0 39.401 62.65 A 4.473 4.473 0 0 0 40.059 61.27 A 4.047 4.047 0 0 0 40.201 60.2 L 40.201 2.9 A 0.315 0.315 0 0 1 40.229 2.762 Q 40.294 2.629 40.504 2.605 A 0.875 0.875 0 0 1 40.601 2.6 L 50.601 2.6 Q 50.983 2.6 51 2.873 A 0.421 0.421 0 0 1 51.001 2.9 Z M 172.601 50.9 L 172.601 72.5 A 0.432 0.432 0 0 1 172.586 72.619 Q 172.548 72.752 172.412 72.787 A 0.442 0.442 0 0 1 172.301 72.8 L 162.901 72.8 A 0.432 0.432 0 0 1 162.783 72.785 Q 162.649 72.747 162.614 72.611 A 0.442 0.442 0 0 1 162.601 72.5 L 162.601 55 A 13.754 13.754 0 0 0 162.468 53.044 A 10.525 10.525 0 0 0 162.101 51.4 Q 161.601 50 160.551 48.85 Q 159.676 47.892 158.002 47.732 A 7.389 7.389 0 0 0 157.301 47.7 L 147.501 47.7 Q 147.26 47.861 147.213 48.022 A 0.277 0.277 0 0 0 147.201 48.1 L 147.201 72.4 Q 147.201 72.782 146.928 72.799 A 0.421 0.421 0 0 1 146.901 72.8 L 137.101 72.8 A 0.576 0.576 0 0 1 136.943 72.78 Q 136.765 72.729 136.718 72.548 A 0.589 0.589 0 0 1 136.701 72.4 L 136.701 0.3 A 0.315 0.315 0 0 1 136.729 0.162 Q 136.794 0.029 137.004 0.005 A 0.875 0.875 0 0 1 137.101 0 L 146.901 0 A 0.432 0.432 0 0 1 147.02 0.015 Q 147.153 0.053 147.188 0.189 A 0.442 0.442 0 0 1 147.201 0.3 L 147.201 39.8 A 0.315 0.315 0 0 0 147.229 39.938 Q 147.294 40.071 147.504 40.095 A 0.875 0.875 0 0 0 147.601 40.1 L 152.301 40.1 A 7.856 7.856 0 0 0 152.952 40.071 Q 153.395 40.034 153.901 39.95 A 3.083 3.083 0 0 0 154.925 39.576 Q 155.281 39.373 155.629 39.07 A 5.278 5.278 0 0 0 155.651 39.05 A 3.784 3.784 0 0 0 156.29 38.305 Q 156.724 37.653 157.051 36.7 Q 157.578 35.169 157.6 32.538 A 27.731 27.731 0 0 0 157.601 32.3 L 157.601 23.7 A 0.432 0.432 0 0 1 157.616 23.581 Q 157.654 23.448 157.79 23.413 A 0.442 0.442 0 0 1 157.901 23.4 L 167.301 23.4 A 0.432 0.432 0 0 1 167.42 23.415 Q 167.553 23.453 167.588 23.589 A 0.442 0.442 0 0 1 167.601 23.7 L 167.601 34.8 Q 167.601 36.511 167.271 37.765 A 6.547 6.547 0 0 1 166.951 38.7 Q 166.398 39.976 165.665 40.782 A 5.002 5.002 0 0 1 165.401 41.05 Q 164.501 41.9 163.551 42.2 Q 162.824 42.43 162.243 42.542 A 7.035 7.035 0 0 1 161.901 42.6 A 10.861 10.861 0 0 1 162.315 42.609 Q 163.037 42.637 164.351 42.75 A 10.76 10.76 0 0 1 166.691 43.227 A 13.376 13.376 0 0 1 167.951 43.7 A 8.43 8.43 0 0 1 170.753 45.691 A 10.116 10.116 0 0 1 171.201 46.2 A 5.721 5.721 0 0 1 172.262 48.262 Q 172.506 49.097 172.574 50.094 A 11.755 11.755 0 0 1 172.601 50.9 Z M 209.601 23.9 L 209.601 31 Q 209.601 31.247 209.398 31.358 A 0.587 0.587 0 0 1 209.301 31.4 L 197.201 31.4 L 197.201 72.5 A 0.432 0.432 0 0 1 197.186 72.619 Q 197.148 72.752 197.012 72.787 A 0.442 0.442 0 0 1 196.901 72.8 L 187.001 72.8 A 0.432 0.432 0 0 1 186.883 72.785 Q 186.749 72.747 186.714 72.611 A 0.442 0.442 0 0 1 186.701 72.5 L 186.701 31.4 L 183.101 31.4 A 0.532 0.532 0 0 1 182.956 31.328 Q 182.801 31.216 182.801 31 L 182.801 23.9 Q 182.801 23.518 183.075 23.501 A 0.421 0.421 0 0 1 183.101 23.5 L 186.701 23.5 L 186.701 11.9 A 9.142 9.142 0 0 1 189.38 5.272 A 10.844 10.844 0 0 1 189.401 5.25 Q 192.101 2.5 196.001 2.4 L 207.201 2.4 Q 209.101 2.4 210.851 3.15 Q 212.601 3.9 213.851 5.15 A 9.313 9.313 0 0 1 215.656 7.72 A 10.769 10.769 0 0 1 215.851 8.15 Q 216.601 9.9 216.601 11.9 L 216.601 16.8 A 0.432 0.432 0 0 1 216.586 16.919 Q 216.548 17.052 216.412 17.087 A 0.442 0.442 0 0 1 216.301 17.1 L 207.401 17.1 A 0.432 0.432 0 0 1 207.283 17.085 Q 207.149 17.047 207.114 16.911 A 0.442 0.442 0 0 1 207.101 16.8 L 207.101 11 A 0.432 0.432 0 0 0 207.086 10.881 Q 207.048 10.748 206.912 10.713 A 0.442 0.442 0 0 0 206.801 10.7 L 197.501 10.7 A 0.432 0.432 0 0 0 197.383 10.715 Q 197.249 10.753 197.214 10.889 A 0.442 0.442 0 0 0 197.201 11 L 197.201 23.5 L 209.301 23.5 A 0.315 0.315 0 0 1 209.439 23.528 Q 209.573 23.592 209.596 23.803 A 0.875 0.875 0 0 1 209.601 23.9 Z M 222.601 0 L 232.301 0 A 0.308 0.308 0 0 1 232.461 0.048 Q 232.562 0.108 232.663 0.246 A 1.414 1.414 0 0 1 232.701 0.3 L 232.701 72.4 Q 232.501 72.8 232.301 72.8 L 222.601 72.8 A 0.576 0.576 0 0 1 222.443 72.78 Q 222.265 72.729 222.218 72.548 A 0.589 0.589 0 0 1 222.201 72.4 L 222.201 0.3 A 0.315 0.315 0 0 1 222.229 0.162 Q 222.294 0.029 222.504 0.005 A 0.875 0.875 0 0 1 222.601 0 Z M 71.001 23.4 L 85.001 23.4 Q 88.901 23.4 91.551 26.15 Q 94.201 28.9 94.201 32.8 L 94.201 63.4 Q 94.201 67.3 91.551 70.05 A 8.703 8.703 0 0 1 85.244 72.797 A 10.899 10.899 0 0 1 85.001 72.8 L 85.101 72.8 L 70.901 72.8 L 71.001 72.8 A 9.065 9.065 0 0 1 67.376 72.091 A 8.652 8.652 0 0 1 64.501 70.05 Q 61.901 67.3 61.901 63.4 L 61.901 32.8 Q 61.901 28.9 64.501 26.15 Q 67.101 23.4 71.001 23.4 Z M 252.601 23.4 L 266.601 23.4 Q 270.501 23.4 273.151 26.15 Q 275.801 28.9 275.801 32.8 L 275.801 63.4 Q 275.801 67.3 273.151 70.05 A 8.703 8.703 0 0 1 266.844 72.797 A 10.899 10.899 0 0 1 266.601 72.8 L 266.701 72.8 L 252.501 72.8 L 252.601 72.8 A 9.065 9.065 0 0 1 248.976 72.091 A 8.652 8.652 0 0 1 246.101 70.05 Q 243.501 67.3 243.501 63.4 L 243.501 32.8 Q 243.501 28.9 246.101 26.15 Q 248.701 23.4 252.601 23.4 Z M 295.301 23.4 L 309.301 23.4 Q 313.201 23.4 315.851 26.15 Q 318.501 28.9 318.501 32.8 L 318.501 63.4 Q 318.501 67.3 315.851 70.05 A 8.703 8.703 0 0 1 309.544 72.797 A 10.899 10.899 0 0 1 309.301 72.8 L 309.401 72.8 L 295.201 72.8 L 295.301 72.8 A 9.065 9.065 0 0 1 291.676 72.091 A 8.652 8.652 0 0 1 288.801 70.05 Q 286.201 67.3 286.201 63.4 L 286.201 32.8 Q 286.201 28.9 288.801 26.15 Q 291.401 23.4 295.301 23.4 Z M 114.101 23.4 L 128.301 23.4 A 0.432 0.432 0 0 1 128.42 23.415 Q 128.553 23.453 128.588 23.589 A 0.442 0.442 0 0 1 128.601 23.7 L 128.601 31.9 A 0.432 0.432 0 0 1 128.586 32.019 Q 128.548 32.152 128.412 32.187 A 0.442 0.442 0 0 1 128.301 32.2 L 115.601 32.2 A 0.432 0.432 0 0 0 115.483 32.215 Q 115.349 32.253 115.314 32.389 A 0.442 0.442 0 0 0 115.301 32.5 L 115.301 72.5 A 0.432 0.432 0 0 1 115.286 72.619 Q 115.248 72.752 115.112 72.787 A 0.442 0.442 0 0 1 115.001 72.8 L 105.101 72.8 A 0.432 0.432 0 0 1 104.983 72.785 Q 104.849 72.747 104.814 72.611 A 0.442 0.442 0 0 1 104.801 72.5 L 104.801 32.9 Q 104.801 30.9 105.551 29.15 A 9.726 9.726 0 0 1 106.958 26.806 A 8.878 8.878 0 0 1 107.551 26.15 Q 108.801 24.9 110.501 24.15 Q 112.201 23.4 114.101 23.4 Z M 338.401 23.4 L 352.601 23.4 A 0.432 0.432 0 0 1 352.72 23.415 Q 352.853 23.453 352.888 23.589 A 0.442 0.442 0 0 1 352.901 23.7 L 352.901 31.9 A 0.432 0.432 0 0 1 352.886 32.019 Q 352.848 32.152 352.712 32.187 A 0.442 0.442 0 0 1 352.601 32.2 L 339.901 32.2 A 0.432 0.432 0 0 0 339.783 32.215 Q 339.649 32.253 339.614 32.389 A 0.442 0.442 0 0 0 339.601 32.5 L 339.601 72.5 A 0.432 0.432 0 0 1 339.586 72.619 Q 339.548 72.752 339.412 72.787 A 0.442 0.442 0 0 1 339.301 72.8 L 329.401 72.8 A 0.432 0.432 0 0 1 329.283 72.785 Q 329.149 72.747 329.114 72.611 A 0.442 0.442 0 0 1 329.101 72.5 L 329.101 32.9 Q 329.101 30.9 329.851 29.15 A 9.726 9.726 0 0 1 331.258 26.806 A 8.878 8.878 0 0 1 331.851 26.15 Q 333.101 24.9 334.801 24.15 Q 336.501 23.4 338.401 23.4 Z M 83.701 64 L 83.701 32 A 0.432 0.432 0 0 0 83.686 31.881 Q 83.648 31.748 83.512 31.713 A 0.442 0.442 0 0 0 83.401 31.7 L 72.801 31.7 Q 72.419 31.7 72.402 31.973 A 0.421 0.421 0 0 0 72.401 32 L 72.401 64 Q 72.401 64.158 72.651 64.316 A 1.721 1.721 0 0 0 72.801 64.4 L 83.401 64.4 A 0.532 0.532 0 0 0 83.546 64.328 Q 83.701 64.216 83.701 64 Z M 265.301 64 L 265.301 32 A 0.432 0.432 0 0 0 265.286 31.881 Q 265.248 31.748 265.112 31.713 A 0.442 0.442 0 0 0 265.001 31.7 L 254.401 31.7 Q 254.019 31.7 254.002 31.973 A 0.421 0.421 0 0 0 254.001 32 L 254.001 64 Q 254.001 64.158 254.251 64.316 A 1.721 1.721 0 0 0 254.401 64.4 L 265.001 64.4 A 0.532 0.532 0 0 0 265.146 64.328 Q 265.301 64.216 265.301 64 Z M 308.001 64 L 308.001 32 A 0.432 0.432 0 0 0 307.986 31.881 Q 307.948 31.748 307.812 31.713 A 0.442 0.442 0 0 0 307.701 31.7 L 297.101 31.7 Q 296.719 31.7 296.702 31.973 A 0.421 0.421 0 0 0 296.701 32 L 296.701 64 Q 296.701 64.158 296.951 64.316 A 1.721 1.721 0 0 0 297.101 64.4 L 307.701 64.4 A 0.532 0.532 0 0 0 307.846 64.328 Q 308.001 64.216 308.001 64 Z" vector-effect="non-scaling-stroke"/></g></svg>